<svg xmlns="http://www.w3.org/2000/svg" viewBox="0 0 512 512">
  <defs>
    <radialGradient id="bg" cx="35%" cy="20%" r="80%">
      <stop offset="0" stop-color="#ffb24a"/>
      <stop offset="0.45" stop-color="#b2291f"/>
      <stop offset="1" stop-color="#27120f"/>
    </radialGradient>
    <linearGradient id="metal" x1="0" x2="1" y1="0" y2="1">
      <stop offset="0" stop-color="#3b4248"/>
      <stop offset="0.55" stop-color="#11161a"/>
      <stop offset="1" stop-color="#05080a"/>
    </linearGradient>
    <linearGradient id="red" x1="0" x2="1">
      <stop offset="0" stop-color="#ff6238"/>
      <stop offset="1" stop-color="#7c120f"/>
    </linearGradient>
  </defs>
  <rect width="512" height="512" rx="92" fill="#f7efe8"/>
  <circle cx="256" cy="264" r="196" fill="url(#bg)"/>
  <path d="M112 250c-30-55-30-107 1-151 42 12 75 36 97 72h92c24-36 58-60 100-72 31 44 31 96 1 151 12 30 13 66 1 105-35 59-84 89-148 89s-113-30-148-89c-12-39-11-75 4-105z" fill="url(#metal)" stroke="#240806" stroke-width="18" stroke-linejoin="round"/>
  <path d="M128 118c34 12 57 34 70 66-42 3-72 17-95 43-7-39 1-75 25-109zM384 118c-34 12-57 34-70 66 42 3 72 17 95 43 7-39-1-75-25-109z" fill="url(#red)"/>
  <path d="M141 281c29-27 66-39 115-39s86 12 115 39c3 63-35 112-115 112s-118-49-115-112z" fill="#15191d"/>
  <path d="M166 296c25-18 55-27 90-27s65 9 90 27c-7 43-37 66-90 66s-83-23-90-66z" fill="#2a3036"/>
  <circle cx="198" cy="306" r="30" fill="#ffe0b0"/>
  <circle cx="314" cy="306" r="30" fill="#ffe0b0"/>
  <circle cx="198" cy="306" r="14" fill="#111"/>
  <circle cx="314" cy="306" r="14" fill="#111"/>
  <path d="M226 345c18 12 42 12 60 0" fill="none" stroke="#ffb24a" stroke-width="13" stroke-linecap="round"/>
  <path d="M80 286c34 7 52 27 54 61-34-2-57-17-70-44zM432 286c-34 7-52 27-54 61 34-2 57-17 70-44z" fill="#7d1511" stroke="#2a0907" stroke-width="12"/>
  <path d="M143 404c60 56 166 56 226 0" fill="none" stroke="#ff5a34" stroke-width="20" stroke-linecap="round"/>
  <path d="M144 115c10-18 26-31 47-39M368 115c-10-18-26-31-47-39" fill="none" stroke="#ffcf68" stroke-width="14" stroke-linecap="round"/>
</svg>
